<?xml version="1.0" standalone="no"?>
<!DOCTYPE svg PUBLIC "-//W3C//DTD SVG 1.1//EN" "http://www.w3.org/Graphics/SVG/1.1/DTD/svg11.dtd" >
<svg xmlns="http://www.w3.org/2000/svg">
<metadata>
This is a custom SVG webfont generated by Font Squirrel.
Copyright   : nullnamesubstitute
Designer    : Eduardo Chang
</metadata>
<defs>
<font id="CRONOSRegular" horiz-adv-x="1806" >
<font-face units-per-em="2048" ascent="1638" descent="-410" />
<missing-glyph horiz-adv-x="751" />
<glyph unicode=" "  horiz-adv-x="751" />
<glyph unicode="&#x09;" horiz-adv-x="751" />
<glyph unicode="&#xa0;" horiz-adv-x="751" />
<glyph unicode="!" horiz-adv-x="425" d="M0 70v137q0 31 21.5 50t48.5 19h137q31 0 50 -19t19 -50v-137q0 -27 -19 -48.5t-50 -21.5h-137q-27 0 -48.5 21.5t-21.5 48.5zM0 1038q0 31 21.5 50.5t48.5 19.5h137q31 0 50 -19.5t19 -50.5l-26 -649q0 -29 -19.5 -49.5t-50.5 -20.5h-80q-31 0 -50 20.5t-19 49.5z" />
<glyph unicode="&#x22;" horiz-adv-x="751" d="M0 991v144q0 31 21.5 50t50.5 19h139q27 0 48.5 -21.5t21.5 -47.5v-211q0 -35 -40 -67t-61 -32h-12q-27 0 -27 27v53q0 18 -20 19h-49q-29 0 -50.5 21t-21.5 46zM322 991v144q0 31 21.5 50t51.5 19h137q27 0 48.5 -21.5t21.5 -47.5v-211q0 -35 -39 -67t-61 -32h-10 q-29 0 -29 27v53q0 18 -21 19h-47q-31 0 -52 21t-21 46z" />
<glyph unicode="#" d="M0 256v139q0 29 19.5 48.5t50.5 19.5h137q29 0 49 19.5t20 49.5v46q0 31 -20 50t-49 19h-137q-31 0 -50.5 19.5t-19.5 50.5v137q0 29 19.5 49.5t50.5 20.5h137q29 0 49 19.5t20 49.5v45q0 27 19.5 48.5t50.5 21.5h135q31 0 50.5 -21.5t19.5 -48.5v-45q0 -31 21.5 -50 t48.5 -19h415q27 0 47.5 19.5t20.5 49.5v45q0 27 20.5 48.5t49.5 21.5h135q31 0 50 -21.5t19 -48.5v-45q0 -31 21.5 -50t48.5 -19h139q29 0 48.5 -20.5t19.5 -49.5v-137q0 -31 -19.5 -50.5t-48.5 -19.5h-139q-27 0 -48.5 -19.5t-21.5 -49.5v-46q0 -31 21.5 -50t48.5 -19h139 q29 0 48.5 -19.5t19.5 -48.5v-139q0 -31 -19.5 -50.5t-48.5 -19.5h-139q-27 0 -48.5 -19.5t-21.5 -49.5v-45q0 -29 -19.5 -50.5t-49.5 -21.5h-135q-29 0 -49.5 21.5t-20.5 50.5v45q0 31 -20.5 50t-47.5 19h-415q-27 0 -48.5 -19.5t-21.5 -49.5v-45q0 -29 -19.5 -50.5 t-50.5 -21.5h-135q-31 0 -50.5 21.5t-19.5 50.5v45q0 31 -20 50t-49 19h-137q-31 0 -50.5 19.5t-19.5 50.5zM551 532q0 -31 21.5 -50t48.5 -19h415q27 0 47.5 19.5t20.5 49.5v46q0 31 -20.5 50t-47.5 19h-415q-27 0 -48.5 -19.5t-21.5 -49.5v-46z" />
<glyph unicode="$" d="M0 70v137q0 29 19.5 49t50.5 20h1239q31 0 50 19.5t19 50.5q0 27 -19.5 46.5t-49.5 19.5h-1239q-31 0 -50.5 21.5t-19.5 47.5v555q0 27 19.5 47.5t50.5 20.5h180q27 0 26 29v34q0 29 27 29h221q27 0 27 -29v-34q0 -29 31 -29h495q27 0 27 29v34q0 29 29 29h219 q27 0 26 -29v-34q0 -29 31 -29h178q29 0 48.5 -20.5t19.5 -47.5v-139q0 -31 -19.5 -50.5t-48.5 -19.5h-1241q-31 0 -50.5 -19.5t-19.5 -49t19.5 -49t50.5 -19.5h1241q29 0 48.5 -19.5t19.5 -49.5v-551q0 -31 -19.5 -50.5t-48.5 -19.5h-178q-31 0 -31 -31v-35q0 -31 -26 -30 h-219q-29 0 -29 30v35q0 31 -27 31h-495q-31 0 -31 -31v-35q0 -31 -27 -30h-221q-27 0 -27 30v35q0 31 -26 31h-180q-31 0 -50.5 19.5t-19.5 50.5z" />
<glyph unicode="%" d="M0 70v137q0 70 59 102l893 486q59 33 60 102v139q0 27 20.5 47.5t48.5 20.5h506q29 0 48.5 -20.5t19.5 -47.5v-139q0 -70 -60 -102l-890 -486q-59 -33 -60 -102v-137q0 -31 -20.5 -51.5t-49.5 -20.5h-505q-31 0 -50.5 20.5t-19.5 51.5zM0 678v358q0 27 19.5 47.5 t50.5 20.5h358q29 0 49.5 -20.5t20.5 -47.5v-358q0 -31 -20.5 -50.5t-49.5 -19.5h-358q-31 0 -50.5 19.5t-19.5 50.5zM1159 70v358q0 29 19.5 49.5t50.5 20.5h358q29 0 48.5 -20.5t19.5 -49.5v-358q0 -31 -19.5 -51.5t-48.5 -20.5h-358q-31 0 -50.5 20.5t-19.5 51.5z" />
<glyph unicode="&#x26;" d="M0 70v966q0 27 21.5 47.5t50.5 20.5h1521q27 0 46.5 -20.5t19.5 -47.5v-733q0 -29 31 -29h34q29 0 29 -26v-221q0 -27 -29 -27h-34q-31 0 -31 -31v-35q0 -29 -27 -28h-221q-27 0 -27 28v35q0 31 -26 31h-1286q-29 0 -50.5 19.5t-21.5 50.5zM281 344q0 -29 19 -49.5 t50 -20.5h965q29 0 49 20.5t20 49.5t-20.5 48.5t-48.5 19.5h-965q-31 0 -50 -19.5t-19 -48.5zM281 758.5q0 -29.5 19 -49t50 -19.5h965q29 0 49 19.5t20 49t-20.5 49t-48.5 19.5h-965q-31 0 -50 -19.5t-19 -49z" />
<glyph unicode="'" horiz-adv-x="430" d="M0 991v144q0 31 21.5 50t50.5 19h139q27 0 48.5 -21.5t21.5 -47.5v-211q0 -35 -40 -67t-61 -32h-12q-27 0 -27 27v53q0 18 -20 19h-49q-29 0 -50.5 21t-21.5 46z" />
<glyph unicode="(" horiz-adv-x="559" d="M0 66v970q0 66 66 66h274q31 0 50.5 -19.5t19.5 -46.5v-139q0 -27 -19.5 -48.5t-50.5 -21.5q-27 0 -48.5 -20.5t-21.5 -50.5v-410q0 -27 21.5 -48.5t48.5 -21.5q31 0 50.5 -19t19.5 -46v-145q0 -27 -19.5 -46.5t-50.5 -19.5h-274q-66 0 -66 66z" />
<glyph unicode=")" horiz-adv-x="559" d="M0 66v145q0 27 19.5 46t50.5 19q27 0 48 21.5t21 48.5v410q0 31 -21.5 51t-47.5 20q-31 0 -50.5 21.5t-19.5 48.5v139q0 27 19.5 46.5t50.5 19.5h274q66 0 66 -66v-970q0 -66 -66 -66h-274q-31 0 -50.5 19.5t-19.5 46.5z" />
<glyph unicode="*" d="M0 481v142q0 29 21.5 45t48.5 12l301 -25q31 -2 32 7q2 10 -18 22q-2 0 -6 2l-322 199q-51 33 -8 84l86 88q18 18 50 21t53 -15l440 -332q25 -14 38 -8t9 35l-29 278q-4 27 14.5 47.5t47.5 20.5h139q31 0 48.5 -20.5t15.5 -47.5l-31 -278q0 -59 49 -27l438 332 q23 18 54.5 15t48.5 -21l88 -88q47 -47 -9 -84l-323 -199q-14 -8 -18.5 -16t3 -11.5t25.5 -3.5l301 25q27 4 47.5 -12.5t20.5 -44.5v-142q0 -63 -68 -63l-301 31q-31 2 -32 -6.5t22 -24.5l323 -199q23 -14 26 -39.5t-17 -44.5l-88 -86q-16 -18 -48 -21t-55 15l-438 328 q-49 39 -49 -25l31 -276q2 -31 -15.5 -50.5t-48.5 -19.5h-139q-29 0 -47.5 19.5t-14.5 50.5l29 276q4 31 -9.5 37t-37.5 -12l-440 -328q-20 -18 -52 -15t-51 21l-86 86q-18 18 -17 44t25 40l322 199q18 10 22.5 17t-4 10.5t-26.5 3.5l-301 -31q-70 0 -70 63z" />
<glyph unicode="+" d="M0 481v140q0 31 19.5 50t50.5 19h551q31 0 50 20.5t19 47.5v278q0 27 20.5 47.5t47.5 20.5h139q31 0 50.5 -20.5t19.5 -47.5v-278q0 -27 19.5 -47.5t49.5 -20.5h551q29 0 48.5 -19.5t19.5 -49.5v-140q0 -27 -19.5 -46t-48.5 -19h-551q-31 0 -50 -21.5t-19 -48.5v-276 q0 -31 -19.5 -50.5t-50.5 -19.5h-139q-27 0 -47.5 19.5t-20.5 50.5v276q0 27 -19.5 48.5t-49.5 21.5h-551q-31 0 -50.5 19t-19.5 46z" />
<glyph unicode="," horiz-adv-x="425" d="M0 70v137q0 31 21.5 50t48.5 19h137q31 0 50 -19t19 -50v-207q0 -37 -38.5 -68.5t-57.5 -31.5h-12q-29 0 -29 28v54q0 18 -18 18h-51q-27 0 -48.5 21.5t-21.5 48.5z" />
<glyph unicode="-" d="M0 481v140q0 31 19.5 50t50.5 19h1517q29 0 48.5 -19.5t19.5 -49.5v-140q0 -27 -19.5 -46t-48.5 -19h-1517q-31 0 -50.5 19t-19.5 46z" />
<glyph unicode="." horiz-adv-x="425" d="M0 70v137q0 31 21.5 50t48.5 19h137q31 0 50 -19t19 -50v-137q0 -27 -19 -48.5t-50 -21.5h-137q-27 0 -48.5 21.5t-21.5 48.5z" />
<glyph unicode="/" d="M-2 70v137q0 68 55 100l893 488q61 31 62 102v139q0 27 20.5 47.5t48.5 20.5h506q31 0 50.5 -20.5t19.5 -47.5v-139q0 -72 -58 -102l-890 -488q-63 -27 -64 -100v-137q0 -31 -19.5 -51.5t-50.5 -20.5h-505q-29 0 -48.5 20.5t-19.5 51.5z" />
<glyph unicode="0" d="M0 70v966q0 27 19.5 47.5t50.5 20.5h1517q29 0 48.5 -20.5t19.5 -47.5v-966q0 -31 -19.5 -50.5t-48.5 -19.5h-1517q-31 0 -50.5 19.5t-19.5 50.5zM276 506q0 -31 18.5 -41t43.5 2l682 332q61 29 -6 28h-668q-31 0 -50.5 -19.5t-19.5 -49.5v-252zM629 307q-53 -31 6 -31 h674q31 0 50 19.5t19 50.5v250q0 31 -17.5 41t-41.5 -2z" />
<glyph unicode="1" horiz-adv-x="567" d="M0 895v135q0 27 22.5 46.5t53.5 19.5h274q29 0 48.5 -19.5t19.5 -46.5v-960q0 -27 -19.5 -48.5t-48.5 -21.5h-137q-29 0 -48.5 21.5t-19.5 48.5v686q0 31 -21.5 50t-47.5 19q-31 0 -53.5 19.5t-22.5 50.5z" />
<glyph unicode="2" d="M0 70q0 -31 19.5 -51.5t50.5 -20.5h1517q29 0 48.5 20.5t19.5 51.5v137q0 29 -19.5 49t-48.5 20h-1241q-31 0 -50.5 19.5t-19.5 50.5q0 27 19.5 48.5t50.5 21.5h1241q29 0 48.5 19.5t19.5 45.5v555q0 27 -19.5 47.5t-48.5 20.5h-1517q-31 0 -50.5 -20.5t-19.5 -47.5v-139 q0 -31 19.5 -50.5t50.5 -19.5h1239q31 0 50 -19.5t19 -49.5q0 -27 -19.5 -47.5t-49.5 -20.5h-1239q-31 0 -50.5 -19.5t-19.5 -49.5v-551z" />
<glyph unicode="3" d="M0 72v139q0 27 19.5 48.5t50.5 21.5h1239q31 0 50 19t19 50q0 27 -19.5 47.5t-49.5 20.5h-688q-27 0 -48.5 19.5t-21.5 47.5v138q0 31 21.5 50t48.5 19h688q31 0 50 21.5t19 48.5q0 31 -19.5 50t-49.5 19h-1239q-31 0 -50.5 19.5t-19.5 50.5v137q0 27 19.5 48.5 t50.5 21.5h1517q29 0 48.5 -21.5t19.5 -48.5v-966q0 -29 -19.5 -50.5t-48.5 -21.5h-1517q-31 0 -50.5 21.5t-19.5 50.5z" />
<glyph unicode="4" d="M0 485v553q0 27 19.5 48.5t50.5 21.5h137q29 0 49 -21.5t20 -48.5v-276q0 -27 19.5 -48.5t50.5 -21.5h963q31 0 50 21.5t19 48.5v276q0 27 21.5 48.5t48.5 21.5h139q29 0 48.5 -21.5t19.5 -48.5v-966q0 -29 -19.5 -50.5t-48.5 -21.5h-139q-27 0 -48.5 21.5t-21.5 50.5 v278q0 27 -19.5 47.5t-49.5 20.5h-1239q-31 0 -50.5 19t-19.5 48z" />
<glyph unicode="5" d="M0 70v137q0 29 19.5 49t50.5 20h1239q31 0 50 19.5t19 50.5q0 27 -19.5 48.5t-49.5 21.5h-1239q-31 0 -50.5 19.5t-19.5 45.5v596q0 27 27 27h1560q29 0 48.5 -20.5t19.5 -47.5v-139q0 -31 -19.5 -50.5t-48.5 -19.5h-1241q-31 0 -50.5 -19.5t-19.5 -49.5 q0 -27 19.5 -47.5t50.5 -20.5h1241q29 0 48.5 -19.5t19.5 -49.5v-551q0 -31 -19.5 -50.5t-48.5 -19.5h-1517q-31 0 -50.5 19.5t-19.5 50.5z" />
<glyph unicode="6" d="M0 70v966q0 27 19.5 47.5t50.5 20.5h1517q29 0 48.5 -20.5t19.5 -47.5v-139q0 -31 -19.5 -50.5t-48.5 -19.5h-1241q-31 0 -50.5 -19.5t-19.5 -49.5q0 -27 19.5 -47.5t50.5 -20.5h1241q29 0 48.5 -19.5t19.5 -49.5v-551q0 -31 -19.5 -50.5t-48.5 -19.5h-1517 q-31 0 -50.5 19.5t-19.5 50.5zM276 346q0 -31 19.5 -50.5t50.5 -19.5h963q31 0 50 19.5t19 50.5q0 27 -19.5 48.5t-49.5 21.5h-963q-31 0 -50.5 -21.5t-19.5 -48.5z" />
<glyph unicode="7" d="M0 70v137q0 70 59 102l893 486q23 12 22 22t-32 10h-872q-31 0 -50.5 19.5t-19.5 50.5v139q0 27 19.5 47.5t50.5 20.5h1517q29 0 48.5 -20.5t19.5 -47.5v-139q0 -70 -60 -102l-890 -486q-59 -33 -60 -102v-137q0 -31 -20.5 -50.5t-49.5 -19.5h-505q-31 0 -50.5 19.5 t-19.5 50.5z" />
<glyph unicode="8" d="M0 70v387q0 74 14 82q12 14 0 26q-14 16 -14 86v385q0 27 21.5 47.5t48.5 20.5h1517q29 0 48.5 -20.5t19.5 -47.5v-389q0 -70 -10 -82q-16 -14 -5 -28q14 -10 15 -82v-385q0 -27 -20.5 -48.5t-47.5 -21.5h-1517q-27 0 -48.5 21.5t-21.5 48.5zM276 344q0 -29 23 -48.5 t53 -19.5h961q31 0 50 19.5t19 48.5t-19.5 48.5t-49.5 19.5h-961q-31 0 -53.5 -19.5t-22.5 -48.5zM276 758.5q0 -27.5 23 -47t55 -19.5h953q31 0 53 19.5t22 47t-22.5 48t-52.5 20.5h-953q-29 0 -53.5 -20.5t-24.5 -48z" />
<glyph unicode="9" d="M0 72v139q0 27 19.5 48.5t50.5 21.5h1239q31 0 50 19t19 49t-19.5 48.5t-49.5 18.5h-1239q-31 0 -50.5 19.5t-19.5 49.5v553q0 27 19.5 48.5t50.5 21.5h1517q29 0 48.5 -21.5t19.5 -48.5v-966q0 -29 -19.5 -50.5t-48.5 -21.5h-1517q-31 0 -50.5 21.5t-19.5 50.5zM276 762 q0 -31 19.5 -48.5t50.5 -17.5h963q31 0 50 17.5t19 48.5t-19.5 50t-49.5 19h-963q-31 0 -50.5 -19t-19.5 -50z" />
<glyph unicode=":" horiz-adv-x="425" d="M0 72v139q0 31 21.5 50.5t48.5 19.5h137q31 0 50 -19.5t19 -50.5v-139q0 -27 -20 -49.5t-49 -22.5h-137q-27 0 -48.5 22.5t-21.5 49.5zM0 903v139q0 29 21.5 48.5t48.5 19.5h137q31 0 50 -19.5t19 -48.5v-139q0 -27 -19 -48t-50 -21h-137q-27 0 -48.5 21t-21.5 48z" />
<glyph unicode=";" horiz-adv-x="425" d="M0 70v137q0 31 21.5 50t48.5 19h137q31 0 50 -19t19 -50v-207q0 -37 -38.5 -68.5t-57.5 -31.5h-12q-29 0 -29 28v54q0 18 -18 18h-51q-27 0 -48.5 21.5t-21.5 48.5zM0 901v137q0 31 21.5 50.5t48.5 19.5h137q31 0 50 -19.5t19 -50.5v-137q0 -29 -19 -49.5t-50 -20.5h-137 q-27 0 -48.5 20.5t-21.5 49.5z" />
<glyph unicode="=" d="M0 207v139q0 31 19.5 50.5t50.5 19.5h1517q29 0 48.5 -19.5t19.5 -50.5v-139q0 -27 -19.5 -46.5t-48.5 -19.5h-1517q-31 0 -50.5 19.5t-19.5 46.5zM0 756v139q0 29 19.5 48.5t50.5 19.5h1517q29 0 48.5 -19.5t19.5 -48.5v-139q0 -27 -19.5 -46.5t-48.5 -19.5h-1517 q-31 0 -50.5 19.5t-19.5 46.5z" />
<glyph unicode="?" d="M0 43v98q0 43 43 43h193q41 0 40 -43v-98q0 -43 -40 -43h-193q-43 0 -43 43zM0 346v322q0 29 19.5 48t50.5 19h1239q70 0 69 47q0 18 -19.5 31.5t-49.5 13.5h-1239q-31 0 -50.5 19.5t-19.5 50.5v139q0 27 19.5 47.5t50.5 20.5h1517q29 0 48.5 -20.5t19.5 -47.5v-506 q0 -31 -19.5 -50t-48.5 -19h-1241q-31 0 -50.5 -19.5t-19.5 -50.5v-45q0 -31 -20 -50.5t-49 -19.5h-137q-31 0 -50.5 19.5t-19.5 50.5z" />
<glyph unicode="@" d="M0 70v966q0 27 19.5 47.5t50.5 20.5h1517q29 0 48.5 -20.5t19.5 -47.5v-966q0 -31 -19.5 -50.5t-48.5 -19.5h-1106q-27 0 -46 19.5t-19 50.5v551q0 31 19.5 50t45.5 19h828q31 0 50 20.5t19 47.5q0 31 -19.5 50t-49.5 19h-963q-31 0 -50.5 -19.5t-19.5 -49.5v-688 q0 -31 -20 -50.5t-49 -19.5h-137q-31 0 -50.5 19.5t-19.5 50.5zM690 346q0 -31 20.5 -50.5t47.5 -19.5h551q31 0 50 19.5t19 50.5q0 27 -19.5 48.5t-49.5 21.5h-551q-27 0 -47.5 -21.5t-20.5 -48.5z" />
<glyph unicode="A" horiz-adv-x="1789" d="M2 70l61 962q0 27 24 47.5t54 20.5h1377q70 0 77 -68l58 -962q2 -31 -17.5 -50.5t-48.5 -19.5h-135q-31 0 -55.5 21.5t-24.5 48.5l-16 229q0 29 -20.5 51.5t-47.5 22.5h-923q-25 0 -45.5 -22.5t-24.5 -51.5l-12 -229q-2 -31 -23.5 -50.5t-48.5 -19.5h-141 q-31 0 -50.5 19.5t-17.5 50.5zM319 719q0 -29 17.5 -48.5t48.5 -19.5h883q33 0 52 19.5t17 48.5l-4 43q-2 27 -24.5 51.5t-51.5 24.5h-862q-29 0 -49 -22.5t-24 -53.5z" />
<glyph unicode="B" d="M0 70v962q0 31 19.5 50.5t50.5 19.5h1378q27 0 48.5 -19.5t21.5 -50.5v-274q0 -20 3 -32.5t19 -23t46 -10.5t49.5 -20.5t19.5 -50.5v-551q0 -27 -19.5 -48.5t-48.5 -21.5h-1517q-31 0 -50.5 21.5t-19.5 48.5zM274 344q0 -29 22.5 -48.5t53.5 -19.5h959q31 0 50 19.5 t19 48.5t-19.5 48.5t-49.5 19.5h-959q-31 0 -53.5 -19.5t-22.5 -48.5zM274 758.5q0 -27.5 22.5 -47t53.5 -19.5h824q29 0 49 19.5t20 47t-20.5 48t-48.5 20.5h-824q-31 0 -53.5 -20.5t-22.5 -48z" />
<glyph unicode="C" d="M0 70v962q0 31 19.5 50.5t50.5 19.5h1517q29 0 48.5 -19.5t19.5 -50.5v-319q0 -29 -19.5 -48.5t-48.5 -19.5h-139q-31 0 -50.5 19.5t-19.5 48.5v45q0 31 -19.5 50t-49.5 19h-963q-31 0 -50.5 -19.5t-19.5 -49.5v-414q0 -29 19.5 -49.5t50.5 -20.5h963q31 0 50 20.5 t19 49.5v47q0 31 19.5 50.5t50.5 19.5h139q29 0 48.5 -19.5t19.5 -50.5v-321q0 -27 -19.5 -48.5t-48.5 -21.5h-1517q-31 0 -50.5 21.5t-19.5 48.5z" />
<glyph unicode="D" d="M0 70v962q0 31 19 50q18 18 45 18h6l1517 -119q29 -2 48.5 -23.5t19.5 -52.5v-835q0 -31 -19.5 -50.5t-48.5 -19.5h-1517q-31 0 -50.5 19.5t-19.5 50.5zM276 395q0 -31 21.5 -50t52.5 -19h959q29 0 49 19.5t20 49.5v252q0 27 -20.5 48.5t-48.5 23.5l-959 51q-6 1 -11 1 q-24 0 -41 -15q-22 -18 -22 -49v-312z" />
<glyph unicode="E" d="M0 70v962q0 31 19.5 50.5t50.5 19.5h1517q29 0 48.5 -19.5t19.5 -50.5v-135q0 -31 -19.5 -50.5t-48.5 -19.5h-1241q-31 0 -50.5 -19.5t-19.5 -49t19.5 -49t50.5 -19.5h690q29 0 48.5 -19.5t19.5 -49.5v-140q0 -31 -19.5 -50t-48.5 -19h-690q-31 0 -50.5 -19.5 t-19.5 -49.5t19.5 -49.5t50.5 -19.5h1241q29 0 48.5 -19t19.5 -50v-135q0 -31 -19.5 -50.5t-48.5 -19.5h-1517q-31 0 -50.5 19.5t-19.5 50.5z" />
<glyph unicode="F" d="M0 70v962q0 31 19.5 50.5t50.5 19.5h1517q29 0 48.5 -19.5t19.5 -50.5v-135q0 -31 -19.5 -50.5t-48.5 -19.5h-1241q-31 0 -50.5 -19.5t-19.5 -49t19.5 -49t50.5 -19.5h690q29 0 48.5 -19.5t19.5 -49.5v-140q0 -31 -19.5 -50t-48.5 -19h-690q-31 0 -50.5 -19.5 t-19.5 -48.5v-274q0 -31 -19 -50.5t-50 -19.5h-137q-31 0 -50.5 19.5t-19.5 50.5z" />
<glyph unicode="G" d="M0 70v962q0 31 19.5 50.5t50.5 19.5h1517q29 0 48.5 -19.5t19.5 -50.5v-135q0 -27 -19.5 -48.5t-48.5 -21.5h-1241q-31 0 -50.5 -19.5t-19.5 -49.5v-414q0 -29 19.5 -49.5t50.5 -20.5h963q31 0 50 20.5t19 49.5t-19.5 48.5t-49.5 19.5h-412q-31 0 -50.5 21.5t-19.5 47.5 v140q0 31 19.5 50t50.5 19h690q29 0 48.5 -19.5t19.5 -49.5v-551q0 -27 -19.5 -48.5t-48.5 -21.5h-1517q-31 0 -50.5 21.5t-19.5 48.5z" />
<glyph unicode="H" d="M0 70v962q0 31 19.5 50.5t50.5 19.5h137q31 0 50 -19.5t19 -50.5v-274q0 -27 19.5 -47.5t50.5 -20.5h963q31 0 50 20.5t19 47.5v274q0 31 19.5 50.5t50.5 19.5h139q29 0 48.5 -19.5t19.5 -50.5v-962q0 -27 -19.5 -48.5t-48.5 -21.5h-139q-31 0 -50.5 21.5t-19.5 48.5v274 q0 29 -19.5 48.5t-49.5 19.5h-963q-31 0 -50.5 -19.5t-19.5 -48.5v-274q0 -27 -19 -48.5t-50 -21.5h-137q-31 0 -50.5 21.5t-19.5 48.5z" />
<glyph unicode="I" horiz-adv-x="425" d="M0 70v962q0 31 21.5 50.5t48.5 19.5h137q31 0 50 -19.5t19 -50.5v-962q0 -27 -19 -48.5t-50 -21.5h-137q-27 0 -48.5 21.5t-21.5 48.5z" />
<glyph unicode="J" d="M0 66v413q0 29 19.5 49.5t50.5 20.5h135q31 0 51 -20.5t20 -49.5v-139q0 -66 68 -66h969q66 0 65 66v692q0 27 21.5 48.5t52.5 21.5h135q27 0 47.5 -21.5t20.5 -48.5v-966q0 -29 -19.5 -47.5t-48.5 -18.5h-1517q-31 0 -50.5 18.5t-19.5 47.5z" />
<glyph unicode="K" d="M0 66v966q0 27 21.5 48.5t48.5 21.5h135q31 0 53.5 -22.5t22.5 -47.5v-231q0 -27 17 -42.5t46 -4.5l969 237q63 16 63 62q0 49 76 49h135q27 0 47.5 -21.5t20.5 -48.5v-231q0 -25 -20.5 -45.5t-47.5 -20.5h-135q-86 0 -139 -18l-269 -66q-27 -10 -28.5 -25.5t22.5 -29.5 l287 -193q51 -37 127 -36h135q29 0 48.5 -20.5t19.5 -51.5v-229q0 -29 -19.5 -47.5t-48.5 -18.5h-135q-76 0 -127 37l-645 465q-32 32 -86 31q-16 0 -35 -3l-215 -57q-29 -4 -46 -30.5t-17 -57.5v-319q0 -27 -22.5 -46.5t-53.5 -19.5h-135q-31 0 -50.5 18.5t-19.5 47.5z" />
<glyph unicode="L" d="M0 66q0 -29 19.5 -47.5t50.5 -18.5h1517q29 0 48.5 18.5t19.5 47.5v139q0 27 -20.5 48t-47.5 21h-1243q-68 0 -68 66v692q0 27 -20 48.5t-51 21.5h-135q-27 0 -48.5 -21.5t-21.5 -48.5v-966z" />
<glyph unicode="M" d="M0 66v966q0 27 21.5 48.5t48.5 21.5h135q59 0 127 -39l426 -301q29 -19 57 -20l57 20l453 301q66 39 127 39h135q27 0 47.5 -21.5t20.5 -48.5v-966q0 -29 -19.5 -47.5t-48.5 -18.5h-135q-31 0 -53.5 19.5t-22.5 46.5v579q0 45 -30 45q-11 0 -27 -6l-434 -248 q-33 -17 -61.5 -17t-53.5 17l-432 236q-17 8 -29 8q-28 0 -28 -45v-569q0 -27 -22.5 -46.5t-53.5 -19.5h-135q-31 0 -50.5 18.5t-19.5 47.5z" />
<glyph unicode="N" d="M0 66v966q0 27 21.5 48.5t48.5 21.5h135q25 0 34 -1t20 -12.5t22 -35.5q12 -49 57 -78l981 -539q16 -7 28 -7q29 0 29 44v559q0 25 22.5 47.5t53.5 22.5h135q27 0 47.5 -21.5t20.5 -48.5v-966q0 -29 -19.5 -47.5t-48.5 -18.5h-135q-55 0 -76 39q0 57 -57 84l-981 536 q-18 8 -30 9q-27 0 -27 -41v-561q0 -27 -22.5 -46.5t-53.5 -19.5h-135q-31 0 -50.5 18.5t-19.5 47.5z" />
<glyph unicode="O" d="M0 66v966q0 27 21.5 48.5t48.5 21.5h1517q27 0 47.5 -21.5t20.5 -48.5v-966q0 -29 -19.5 -47.5t-48.5 -18.5h-1517q-31 0 -50.5 18.5t-19.5 47.5zM281 344q0 -31 17 -50.5t48 -19.5h963q31 0 49 19.5t18 50.5v412q0 31 -18.5 50t-48.5 19h-963q-31 0 -48 -19.5t-17 -49.5 v-412z" />
<glyph unicode="P" d="M0 70v962q0 31 19.5 50.5t50.5 19.5h1517q29 0 48.5 -19.5t19.5 -50.5v-592q0 -29 -19.5 -49t-48.5 -20h-1241q-66 0 -65 -68v-233q0 -31 -22.5 -50.5t-53.5 -19.5h-135q-31 0 -50.5 19.5t-19.5 50.5zM281 717q0 -31 17 -50.5t48 -19.5h963q31 0 49 19.5t18 50.5v41 q0 31 -19.5 53.5t-47.5 22.5h-963q-27 0 -46 -23t-19 -53v-41z" />
<glyph unicode="Q" d="M0 66v966q0 31 19.5 50.5t50.5 19.5h1517q29 0 48.5 -19.5t19.5 -50.5v-966q0 -23 -20.5 -44.5t-47.5 -21.5h-454q-10 0 -20.5 -9t-10.5 -22v-35q0 -31 -25 -30h-223q-27 0 -27 30v35q0 31 -26 31h-731q-27 0 -48.5 21.5t-21.5 44.5zM274 346q0 -31 20.5 -50.5 t49.5 -19.5h457q27 0 26 27v127q0 31 27 31h223q25 0 25 -31v-127q0 -27 31 -27h180q31 0 50 19.5t19 50.5v412q0 29 -19.5 49t-49.5 20h-969q-29 0 -49.5 -20.5t-20.5 -48.5v-412z" />
<glyph unicode="R" d="M0 66v966q0 27 21.5 48.5t48.5 21.5h1517q27 0 47.5 -21.5t20.5 -48.5v-596q0 -31 -19.5 -50t-48.5 -19h-135q-31 0 -40 -17.5t9 -42.5l195 -256q13 -18 13 -30q0 -21 -42 -21h-229q-66 0 -111 51l-196 256q-12 25 -45 42.5t-60 17.5h-600q-31 0 -48 -20.5t-17 -51.5 v-229q0 -27 -22.5 -46.5t-53.5 -19.5h-135q-31 0 -50.5 18.5t-19.5 47.5zM281 707q0 -27 19 -47.5t46 -20.5h963q29 0 48 20.5t19 47.5v51q0 68 -67 67h-963q-66 0 -65 -67v-51z" />
<glyph unicode="S" d="M0 66v139q0 27 19.5 48t50.5 21h1239q31 0 49 19.5t18 50.5q0 66 -67 66h-1239q-31 0 -50.5 19.5t-19.5 49.5v553q0 27 21.5 48.5t48.5 21.5h1517q27 0 47.5 -21.5t20.5 -48.5v-137q0 -31 -19.5 -50.5t-48.5 -19.5h-1241q-31 0 -48 -19.5t-17 -49.5q0 -66 65 -66h1241 q27 0 47.5 -21.5t20.5 -47.5v-555q0 -29 -19.5 -47.5t-48.5 -18.5h-1517q-31 0 -50.5 18.5t-19.5 47.5z" />
<glyph unicode="T" d="M0 895v137q0 27 21.5 48.5t48.5 21.5h1517q27 0 47.5 -21.5t20.5 -48.5v-137q0 -31 -19.5 -50.5t-48.5 -19.5h-549q-31 0 -53 -19.5t-22 -49.5v-690q0 -66 -66 -66h-139q-66 0 -66 66v690q0 31 -22.5 50t-53.5 19h-546q-31 0 -50.5 19.5t-19.5 50.5z" />
<glyph unicode="U" d="M0 66v966q0 27 21.5 48.5t48.5 21.5h135q31 0 53.5 -22.5t22.5 -47.5v-688q0 -31 17 -50.5t48 -19.5h963q31 0 49 19.5t18 50.5v688q0 25 22.5 47.5t53.5 22.5h135q27 0 47.5 -21.5t20.5 -48.5v-966q0 -29 -19.5 -47.5t-48.5 -18.5h-1517q-31 0 -50.5 18.5t-19.5 47.5z " />
<glyph unicode="V" d="M0 872v160q0 27 21.5 48.5t48.5 21.5h135q31 0 53.5 -19.5t22.5 -44.5q0 -66 34 -120l467 -590q23 -23 45 -23l45 23l467 590q37 55 37 120q0 25 22.5 44.5t53.5 19.5h135q27 0 47.5 -21.5t20.5 -48.5v-160q0 -74 -45 -118l-553 -703q-43 -51 -111 -51h-233 q-72 0 -113 51l-555 703q-45 44 -45 118z" />
<glyph unicode="W" d="M0 1032q0 27 21.5 48.5t48.5 21.5h135q31 0 53.5 -22.5t22.5 -47.5l26 -583q0 -25 19.5 -34t44.5 7l399 237q32 16 60.5 16.5t54.5 -16.5l401 -231q23 -12 43.5 -2t20.5 35l26 571q0 25 22.5 47.5t53.5 22.5h135q27 0 47.5 -21.5t20.5 -48.5l-33 -966q0 -29 -19.5 -47.5 t-48.5 -18.5h-143q-66 0 -119 37l-395 297q-25 18 -57.5 18t-57.5 -18l-417 -297q-55 -37 -121 -37h-142q-31 0 -50 18.5t-19 47.5z" />
<glyph unicode="X" d="M0 66v184q0 31 19.5 59.5t43.5 36.5l388 178q25 8 24.5 24.5t-24.5 26.5l-388 179q-63 29 -63 96v182q0 27 21.5 48.5t48.5 21.5h135q27 0 39 -1t24.5 -16.5t12.5 -46.5q0 -66 57 -98l432 -205q31 -16 61 -16t60 16l428 201q57 33 57 96q0 33 12.5 48.5t23.5 18.5t40 3 h135q27 0 47.5 -21.5t20.5 -48.5v-182q0 -68 -62 -96l-383 -179q-27 -10 -26.5 -26.5t26.5 -24.5l383 -178q23 -8 42.5 -36.5t19.5 -59.5v-184q0 -29 -19.5 -47.5t-48.5 -18.5h-135q-29 0 -40 1t-23.5 18.5t-12.5 46.5v4q0 66 -57 98l-428 203q-30 13 -60 13t-61 -13 l-432 -203q-57 -23 -57 -98v-4q0 -29 -12.5 -46.5t-25 -18.5t-38.5 -1h-135q-31 0 -50.5 18.5t-19.5 47.5z" />
<glyph unicode="Y" d="M6 1032q-2 7 -1 13q0 19 13 35q18 22 45 22h138q29 0 51 -21.5t22 -48.5v-47q0 -74 60 -102l430 -232q34 -15 64 -15t57 15l436 232q61 29 61 102v47q0 25 20.5 47.5t45.5 22.5h145q27 0 44.5 -21.5t13.5 -48.5l-19 -182q0 -63 -63 -109l-545 -319q-57 -33 -57 -109v-247 q0 -29 -19.5 -47.5t-50.5 -18.5h-139q-29 0 -48.5 18.5t-19.5 47.5v253q0 27 -18.5 59t-44.5 44l-527 319q-63 45 -69 109z" />
<glyph unicode="Z" d="M0 66v139q0 66 57 98l891 490q14 8 20.5 15t-0.5 12t-22 5h-876q-31 0 -50.5 19.5t-19.5 50.5v137q0 27 21.5 48.5t48.5 21.5h1517q27 0 47.5 -21.5t20.5 -48.5v-137q0 -63 -56 -102l-892 -490q-14 -4 -20.5 -12t1.5 -12.5t25 -4.5h874q29 0 48.5 -21.5t19.5 -47.5v-139 q0 -29 -19.5 -47.5t-48.5 -18.5h-1517q-31 0 -50.5 18.5t-19.5 47.5z" />
<glyph unicode="a" d="M2 70l61 962q0 27 24 47.5t54 20.5h1377q70 0 77 -68l58 -962q2 -31 -17.5 -50.5t-48.5 -19.5h-135q-31 0 -55.5 21.5t-24.5 48.5l-16 229q0 29 -20.5 51.5t-47.5 22.5h-923q-25 0 -45.5 -22.5t-24.5 -51.5l-12 -229q-2 -31 -23.5 -50.5t-48.5 -19.5h-141 q-31 0 -50.5 19.5t-17.5 50.5zM319 719q0 -29 17.5 -48.5t48.5 -19.5h883q33 0 52 19.5t17 48.5l-4 43q-2 27 -24.5 51.5t-51.5 24.5h-862q-29 0 -49 -22.5t-24 -53.5z" />
<glyph unicode="b" d="M0 70v962q0 31 19.5 50.5t50.5 19.5h1378q27 0 48.5 -19.5t21.5 -50.5v-274q0 -20 3 -32.5t19 -23t46 -10.5t49.5 -20.5t19.5 -50.5v-551q0 -27 -19.5 -48.5t-48.5 -21.5h-1517q-31 0 -50.5 21.5t-19.5 48.5zM274 344q0 -29 22.5 -48.5t53.5 -19.5h959q31 0 50 19.5 t19 48.5t-19.5 48.5t-49.5 19.5h-959q-31 0 -53.5 -19.5t-22.5 -48.5zM274 758.5q0 -27.5 22.5 -47t53.5 -19.5h824q29 0 49 19.5t20 47t-20.5 48t-48.5 20.5h-824q-31 0 -53.5 -20.5t-22.5 -48z" />
<glyph unicode="c" d="M0 70v962q0 31 19.5 50.5t50.5 19.5h1517q29 0 48.5 -19.5t19.5 -50.5v-319q0 -29 -19.5 -48.5t-48.5 -19.5h-139q-31 0 -50.5 19.5t-19.5 48.5v45q0 31 -19.5 50t-49.5 19h-963q-31 0 -50.5 -19.5t-19.5 -49.5v-414q0 -29 19.5 -49.5t50.5 -20.5h963q31 0 50 20.5 t19 49.5v47q0 31 19.5 50.5t50.5 19.5h139q29 0 48.5 -19.5t19.5 -50.5v-321q0 -27 -19.5 -48.5t-48.5 -21.5h-1517q-31 0 -50.5 21.5t-19.5 48.5z" />
<glyph unicode="d" d="M0 70v962q0 31 19 50q18 18 45 18h6l1517 -119q29 -2 48.5 -23.5t19.5 -52.5v-835q0 -31 -19.5 -50.5t-48.5 -19.5h-1517q-31 0 -50.5 19.5t-19.5 50.5zM276 395q0 -31 21.5 -50t52.5 -19h959q29 0 49 19.5t20 49.5v252q0 27 -20.5 48.5t-48.5 23.5l-959 51q-6 1 -11 1 q-24 0 -41 -15q-22 -18 -22 -49v-312z" />
<glyph unicode="e" d="M0 70v962q0 31 19.5 50.5t50.5 19.5h1517q29 0 48.5 -19.5t19.5 -50.5v-135q0 -31 -19.5 -50.5t-48.5 -19.5h-1241q-31 0 -50.5 -19.5t-19.5 -49t19.5 -49t50.5 -19.5h690q29 0 48.5 -19.5t19.5 -49.5v-140q0 -31 -19.5 -50t-48.5 -19h-690q-31 0 -50.5 -19.5 t-19.5 -49.5t19.5 -49.5t50.5 -19.5h1241q29 0 48.5 -19t19.5 -50v-135q0 -31 -19.5 -50.5t-48.5 -19.5h-1517q-31 0 -50.5 19.5t-19.5 50.5z" />
<glyph unicode="f" d="M0 70v962q0 31 19.5 50.5t50.5 19.5h1517q29 0 48.5 -19.5t19.5 -50.5v-135q0 -31 -19.5 -50.5t-48.5 -19.5h-1241q-31 0 -50.5 -19.5t-19.5 -49t19.5 -49t50.5 -19.5h690q29 0 48.5 -19.5t19.5 -49.5v-140q0 -31 -19.5 -50t-48.5 -19h-690q-31 0 -50.5 -19.5 t-19.5 -48.5v-274q0 -31 -19 -50.5t-50 -19.5h-137q-31 0 -50.5 19.5t-19.5 50.5z" />
<glyph unicode="g" d="M0 70v962q0 31 19.5 50.5t50.5 19.5h1517q29 0 48.5 -19.5t19.5 -50.5v-135q0 -27 -19.5 -48.5t-48.5 -21.5h-1241q-31 0 -50.5 -19.5t-19.5 -49.5v-414q0 -29 19.5 -49.5t50.5 -20.5h963q31 0 50 20.5t19 49.5t-19.5 48.5t-49.5 19.5h-412q-31 0 -50.5 21.5t-19.5 47.5 v140q0 31 19.5 50t50.5 19h690q29 0 48.5 -19.5t19.5 -49.5v-551q0 -27 -19.5 -48.5t-48.5 -21.5h-1517q-31 0 -50.5 21.5t-19.5 48.5z" />
<glyph unicode="h" d="M0 70v962q0 31 19.5 50.5t50.5 19.5h137q31 0 50 -19.5t19 -50.5v-274q0 -27 19.5 -47.5t50.5 -20.5h963q31 0 50 20.5t19 47.5v274q0 31 19.5 50.5t50.5 19.5h139q29 0 48.5 -19.5t19.5 -50.5v-962q0 -27 -19.5 -48.5t-48.5 -21.5h-139q-31 0 -50.5 21.5t-19.5 48.5v274 q0 29 -19.5 48.5t-49.5 19.5h-963q-31 0 -50.5 -19.5t-19.5 -48.5v-274q0 -27 -19 -48.5t-50 -21.5h-137q-31 0 -50.5 21.5t-19.5 48.5z" />
<glyph unicode="i" horiz-adv-x="425" d="M0 70v962q0 31 21.5 50.5t48.5 19.5h137q31 0 50 -19.5t19 -50.5v-962q0 -27 -19 -48.5t-50 -21.5h-137q-27 0 -48.5 21.5t-21.5 48.5z" />
<glyph unicode="j" d="M0 66v413q0 29 19.5 49.5t50.5 20.5h135q31 0 51 -20.5t20 -49.5v-139q0 -66 68 -66h969q66 0 65 66v692q0 27 21.5 48.5t52.5 21.5h135q27 0 47.5 -21.5t20.5 -48.5v-966q0 -29 -19.5 -47.5t-48.5 -18.5h-1517q-31 0 -50.5 18.5t-19.5 47.5z" />
<glyph unicode="k" d="M0 66v966q0 27 21.5 48.5t48.5 21.5h135q31 0 53.5 -22.5t22.5 -47.5v-231q0 -27 17 -42.5t46 -4.5l969 237q63 16 63 62q0 49 76 49h135q27 0 47.5 -21.5t20.5 -48.5v-231q0 -25 -20.5 -45.5t-47.5 -20.5h-135q-86 0 -139 -18l-269 -66q-27 -10 -28.5 -25.5t22.5 -29.5 l287 -193q51 -37 127 -36h135q29 0 48.5 -20.5t19.5 -51.5v-229q0 -29 -19.5 -47.5t-48.5 -18.5h-135q-76 0 -127 37l-645 465q-32 32 -86 31q-16 0 -35 -3l-215 -57q-29 -4 -46 -30.5t-17 -57.5v-319q0 -27 -22.5 -46.5t-53.5 -19.5h-135q-31 0 -50.5 18.5t-19.5 47.5z" />
<glyph unicode="l" d="M0 66q0 -29 19.5 -47.5t50.5 -18.5h1517q29 0 48.5 18.5t19.5 47.5v139q0 27 -20.5 48t-47.5 21h-1243q-68 0 -68 66v692q0 27 -20 48.5t-51 21.5h-135q-27 0 -48.5 -21.5t-21.5 -48.5v-966z" />
<glyph unicode="m" d="M0 66v966q0 27 21.5 48.5t48.5 21.5h135q59 0 127 -39l426 -301q29 -19 57 -20l57 20l453 301q66 39 127 39h135q27 0 47.5 -21.5t20.5 -48.5v-966q0 -29 -19.5 -47.5t-48.5 -18.5h-135q-31 0 -53.5 19.5t-22.5 46.5v579q0 45 -30 45q-11 0 -27 -6l-434 -248 q-33 -17 -61.5 -17t-53.5 17l-432 236q-17 8 -29 8q-28 0 -28 -45v-569q0 -27 -22.5 -46.5t-53.5 -19.5h-135q-31 0 -50.5 18.5t-19.5 47.5z" />
<glyph unicode="n" d="M0 66v966q0 27 21.5 48.5t48.5 21.5h135q25 0 34 -1t20 -12.5t22 -35.5q12 -49 57 -78l981 -539q16 -7 28 -7q29 0 29 44v559q0 25 22.5 47.5t53.5 22.5h135q27 0 47.5 -21.5t20.5 -48.5v-966q0 -29 -19.5 -47.5t-48.5 -18.5h-135q-55 0 -76 39q0 57 -57 84l-981 536 q-18 8 -30 9q-27 0 -27 -41v-561q0 -27 -22.5 -46.5t-53.5 -19.5h-135q-31 0 -50.5 18.5t-19.5 47.5z" />
<glyph unicode="o" d="M0 66v966q0 27 21.5 48.5t48.5 21.5h1517q27 0 47.5 -21.5t20.5 -48.5v-966q0 -29 -19.5 -47.5t-48.5 -18.5h-1517q-31 0 -50.5 18.5t-19.5 47.5zM281 344q0 -31 17 -50.5t48 -19.5h963q31 0 49 19.5t18 50.5v412q0 31 -18.5 50t-48.5 19h-963q-31 0 -48 -19.5t-17 -49.5 v-412z" />
<glyph unicode="p" d="M0 70v962q0 31 19.5 50.5t50.5 19.5h1517q29 0 48.5 -19.5t19.5 -50.5v-592q0 -29 -19.5 -49t-48.5 -20h-1241q-66 0 -65 -68v-233q0 -31 -22.5 -50.5t-53.5 -19.5h-135q-31 0 -50.5 19.5t-19.5 50.5zM281 717q0 -31 17 -50.5t48 -19.5h963q31 0 49 19.5t18 50.5v41 q0 31 -19.5 53.5t-47.5 22.5h-963q-27 0 -46 -23t-19 -53v-41z" />
<glyph unicode="q" d="M0 66v966q0 31 19.5 50.5t50.5 19.5h1517q29 0 48.5 -19.5t19.5 -50.5v-966q0 -23 -20.5 -44.5t-47.5 -21.5h-454q-10 0 -20.5 -9t-10.5 -22v-35q0 -31 -25 -30h-223q-27 0 -27 30v35q0 31 -26 31h-731q-27 0 -48.5 21.5t-21.5 44.5zM274 346q0 -31 20.5 -50.5 t49.5 -19.5h457q27 0 26 27v127q0 31 27 31h223q25 0 25 -31v-127q0 -27 31 -27h180q31 0 50 19.5t19 50.5v412q0 29 -19.5 49t-49.5 20h-969q-29 0 -49.5 -20.5t-20.5 -48.5v-412z" />
<glyph unicode="r" d="M0 66v966q0 27 21.5 48.5t48.5 21.5h1517q27 0 47.5 -21.5t20.5 -48.5v-596q0 -31 -19.5 -50t-48.5 -19h-135q-31 0 -40 -17.5t9 -42.5l195 -256q13 -18 13 -30q0 -21 -42 -21h-229q-66 0 -111 51l-196 256q-12 25 -45 42.5t-60 17.5h-600q-31 0 -48 -20.5t-17 -51.5 v-229q0 -27 -22.5 -46.5t-53.5 -19.5h-135q-31 0 -50.5 18.5t-19.5 47.5zM281 707q0 -27 19 -47.5t46 -20.5h963q29 0 48 20.5t19 47.5v51q0 68 -67 67h-963q-66 0 -65 -67v-51z" />
<glyph unicode="s" d="M0 66v139q0 27 19.5 48t50.5 21h1239q31 0 49 19.5t18 50.5q0 66 -67 66h-1239q-31 0 -50.5 19.5t-19.5 49.5v553q0 27 21.5 48.5t48.5 21.5h1517q27 0 47.5 -21.5t20.5 -48.5v-137q0 -31 -19.5 -50.5t-48.5 -19.5h-1241q-31 0 -48 -19.5t-17 -49.5q0 -66 65 -66h1241 q27 0 47.5 -21.5t20.5 -47.5v-555q0 -29 -19.5 -47.5t-48.5 -18.5h-1517q-31 0 -50.5 18.5t-19.5 47.5z" />
<glyph unicode="t" d="M0 895v137q0 27 21.5 48.5t48.5 21.5h1517q27 0 47.5 -21.5t20.5 -48.5v-137q0 -31 -19.5 -50.5t-48.5 -19.5h-549q-31 0 -53 -19.5t-22 -49.5v-690q0 -66 -66 -66h-139q-66 0 -66 66v690q0 31 -22.5 50t-53.5 19h-546q-31 0 -50.5 19.5t-19.5 50.5z" />
<glyph unicode="u" d="M0 66v966q0 27 21.5 48.5t48.5 21.5h135q31 0 53.5 -22.5t22.5 -47.5v-688q0 -31 17 -50.5t48 -19.5h963q31 0 49 19.5t18 50.5v688q0 25 22.5 47.5t53.5 22.5h135q27 0 47.5 -21.5t20.5 -48.5v-966q0 -29 -19.5 -47.5t-48.5 -18.5h-1517q-31 0 -50.5 18.5t-19.5 47.5z " />
<glyph unicode="v" d="M0 872v160q0 27 21.5 48.5t48.5 21.5h135q31 0 53.5 -19.5t22.5 -44.5q0 -66 34 -120l467 -590q23 -23 45 -23l45 23l467 590q37 55 37 120q0 25 22.5 44.5t53.5 19.5h135q27 0 47.5 -21.5t20.5 -48.5v-160q0 -74 -45 -118l-553 -703q-43 -51 -111 -51h-233 q-72 0 -113 51l-555 703q-45 44 -45 118z" />
<glyph unicode="w" d="M0 1032q0 27 21.5 48.5t48.5 21.5h135q31 0 53.5 -22.5t22.5 -47.5l26 -583q0 -25 19.5 -34t44.5 7l399 237q32 16 60.5 16.5t54.5 -16.5l401 -231q23 -12 43.5 -2t20.5 35l26 571q0 25 22.5 47.5t53.5 22.5h135q27 0 47.5 -21.5t20.5 -48.5l-33 -966q0 -29 -19.5 -47.5 t-48.5 -18.5h-143q-66 0 -119 37l-395 297q-25 18 -57.5 18t-57.5 -18l-417 -297q-55 -37 -121 -37h-142q-31 0 -50 18.5t-19 47.5z" />
<glyph unicode="x" d="M0 66v184q0 31 19.5 59.5t43.5 36.5l388 178q25 8 24.5 24.5t-24.5 26.5l-388 179q-63 29 -63 96v182q0 27 21.5 48.5t48.5 21.5h135q27 0 39 -1t24.5 -16.5t12.5 -46.5q0 -66 57 -98l432 -205q31 -16 61 -16t60 16l428 201q57 33 57 96q0 33 12.5 48.5t23.5 18.5t40 3 h135q27 0 47.5 -21.5t20.5 -48.5v-182q0 -68 -62 -96l-383 -179q-27 -10 -26.5 -26.5t26.5 -24.5l383 -178q23 -8 42.5 -36.5t19.5 -59.5v-184q0 -29 -19.5 -47.5t-48.5 -18.5h-135q-29 0 -40 1t-23.5 18.5t-12.5 46.5v4q0 66 -57 98l-428 203q-30 13 -60 13t-61 -13 l-432 -203q-57 -23 -57 -98v-4q0 -29 -12.5 -46.5t-25 -18.5t-38.5 -1h-135q-31 0 -50.5 18.5t-19.5 47.5z" />
<glyph unicode="y" d="M6 1032q-2 7 -1 13q0 19 13 35q18 22 45 22h138q29 0 51 -21.5t22 -48.5v-47q0 -74 60 -102l430 -232q34 -15 64 -15t57 15l436 232q61 29 61 102v47q0 25 20.5 47.5t45.5 22.5h145q27 0 44.5 -21.5t13.5 -48.5l-19 -182q0 -63 -63 -109l-545 -319q-57 -33 -57 -109v-247 q0 -29 -19.5 -47.5t-50.5 -18.5h-139q-29 0 -48.5 18.5t-19.5 47.5v253q0 27 -18.5 59t-44.5 44l-527 319q-63 45 -69 109z" />
<glyph unicode="z" d="M0 66v139q0 66 57 98l891 490q14 8 20.5 15t-0.5 12t-22 5h-876q-31 0 -50.5 19.5t-19.5 50.5v137q0 27 21.5 48.5t48.5 21.5h1517q27 0 47.5 -21.5t20.5 -48.5v-137q0 -63 -56 -102l-892 -490q-14 -4 -20.5 -12t1.5 -12.5t25 -4.5h874q29 0 48.5 -21.5t19.5 -47.5v-139 q0 -29 -19.5 -47.5t-48.5 -18.5h-1517q-31 0 -50.5 18.5t-19.5 47.5z" />
<glyph unicode="&#xa1;" horiz-adv-x="425" d="M0 70l31 649q0 29 19.5 49t49.5 20h80q31 0 50.5 -20t19.5 -49l26 -649q0 -31 -19 -50.5t-50 -19.5h-137q-27 0 -48.5 19.5t-21.5 50.5zM0 901v137q0 27 21.5 48.5t48.5 21.5h137q31 0 50 -21.5t19 -48.5v-137q0 -31 -19 -50.5t-50 -19.5h-137q-27 0 -48.5 19.5 t-21.5 50.5z" />
<glyph unicode="&#xad;" d="M0 481v140q0 31 19.5 50t50.5 19h1517q29 0 48.5 -19.5t19.5 -49.5v-140q0 -27 -19.5 -46t-48.5 -19h-1517q-31 0 -50.5 19t-19.5 46z" />
<glyph unicode="&#xb4;" d="M1178 1274v207q0 27 20.5 48t48.5 21h137q31 0 44.5 -19.5t5.5 -45.5l-50 -215q-8 -27 -35.5 -46.5t-54.5 -19.5h-47q-29 0 -49 19.5t-20 50.5z" />
<glyph unicode="&#xbf;" d="M0 72v506q0 31 19.5 50t50.5 19h1239q31 0 50 19.5t19 50.5v45q0 31 21.5 50t48.5 19h139q29 0 48.5 -19t19.5 -50v-322q0 -29 -19.5 -49t-48.5 -20h-1241q-31 0 -50.5 -13.5t-19.5 -32t19.5 -31.5t50.5 -13h1241q29 0 48.5 -21.5t19.5 -48.5v-139q0 -29 -19.5 -50.5 t-48.5 -21.5h-1517q-31 0 -50.5 21.5t-19.5 50.5zM1378 963v102q0 18 13.5 30.5t29.5 12.5h193q41 0 41 -43v-102q0 -39 -41 -39h-193q-16 0 -29.5 12.5t-13.5 26.5z" />
<glyph unicode="&#xc1;" d="M0 76l59 968q4 27 24.5 48.5t51.5 21.5h774v-276h-514q-31 0 -52 -19.5t-24 -50.5l-4 -45q0 -31 18.5 -50.5t49.5 -19.5h887q29 0 48 19.5t15 50.5l-2 45q-4 31 -24.5 50.5t-49.5 19.5h-8l60 276h209q31 0 51 -21.5t20 -48.5l62 -968q2 -31 -16.5 -52.5t-47.5 -21.5h-139 q-31 0 -51.5 21.5t-20.5 52.5l-16 231q-2 27 -23.5 48.5t-50.5 21.5h-921q-31 0 -51.5 -21.5t-20.5 -48.5l-17 -231q-2 -31 -23.5 -52.5t-51.5 -21.5h-135q-29 0 -48.5 21.5t-17.5 52.5zM981 905v209q0 27 21.5 48.5t48.5 21.5h139q29 0 43 -19.5t4 -48.5l-47 -213 q-10 -27 -37 -46t-53 -19h-49q-27 0 -48.5 19t-21.5 48z" />
<glyph unicode="&#xc9;" d="M0 70v966q0 29 19.5 48.5t50.5 19.5h1030v-273h-754q-31 0 -50.5 -21.5t-19.5 -47.5q0 -31 19.5 -50.5t50.5 -19.5h690q27 0 47.5 -20.5t20.5 -48.5v-138q0 -31 -20.5 -50t-47.5 -19h-690q-31 0 -50.5 -19.5t-19.5 -50.5q0 -27 19.5 -48.5t50.5 -21.5h1241q29 0 48.5 -19 t19.5 -50v-137q0 -31 -19.5 -50.5t-48.5 -19.5h-1517q-31 0 -50.5 19.5t-19.5 50.5zM1171 885v209q0 27 20.5 47t49.5 20h137q31 0 44.5 -19.5t4.5 -45.5l-49 -213q-8 -29 -35.5 -48.5t-54.5 -19.5h-47q-29 0 -49.5 19.5t-20.5 50.5zM1442 831l61 273h84q29 0 48.5 -19.5 t19.5 -48.5v-139q0 -27 -19.5 -46.5t-48.5 -19.5h-145z" />
<glyph unicode="&#xcd;" horiz-adv-x="430" d="M0 70v602q0 31 19.5 48t50.5 17h141q27 0 48.5 -19.5t21.5 -45.5v-602q0 -27 -21.5 -48.5t-48.5 -21.5h-141q-31 0 -50.5 19.5t-19.5 50.5zM20 879v208q0 29 19.5 48.5t50.5 19.5h141q25 0 40.5 -19.5t2.5 -41.5l-49 -215q-6 -29 -32.5 -49.5t-53.5 -20.5h-49 q-27 0 -48.5 21.5t-21.5 48.5z" />
<glyph unicode="&#xd1;" d="M0 72v735q0 31 19.5 50.5t50.5 19.5h137q23 0 33 -3.5t20 -16.5t16 -42q12 -61 64 -84l975 -352q29 -8 46 5t17 40v383q0 31 21.5 50.5t48.5 19.5h139q29 0 48.5 -19.5t19.5 -50.5v-735q0 -29 -19.5 -50.5t-48.5 -21.5h-139q-33 0 -46 7t-24 44q-6 25 -14 37t-49 33 l-975 352q-27 8 -45.5 -4t-18.5 -39v-358q0 -29 -20 -50.5t-49 -21.5h-137q-31 0 -50.5 21.5t-19.5 50.5zM0 954v111q0 37 37 37h1585q33 0 33 -37v-111q0 -37 -33 -36h-1585q-37 -1 -37 36z" />
<glyph unicode="&#xd3;" d="M0 70v966q0 29 19.5 48.5t50.5 19.5h917v-273h-641q-31 0 -50.5 -21.5t-19.5 -47.5v-416q0 -27 19.5 -48.5t50.5 -21.5h963q31 0 50 21.5t19 48.5v416q0 27 -17.5 46t-45.5 19l74 277h198q29 0 48.5 -19.5t19.5 -48.5v-966q0 -27 -19.5 -48.5t-48.5 -21.5h-1517 q-31 0 -50.5 21.5t-19.5 48.5zM1059 885v209q0 27 20.5 47t48.5 20h140q27 0 42 -19.5t5 -45.5l-51 -213q-8 -29 -34 -48.5t-56 -19.5h-46q-29 0 -49 19.5t-20 50.5z" />
<glyph unicode="&#xda;" d="M0 70v966q0 29 19.5 48.5t50.5 19.5h137q29 0 49 -19.5t20 -48.5v-690q0 -27 19.5 -48.5t50.5 -21.5h963q31 0 50 21.5t19 48.5v690q0 29 21.5 48.5t48.5 19.5h139q29 0 48.5 -19.5t19.5 -48.5v-966q0 -27 -19.5 -48.5t-48.5 -21.5h-1517q-31 0 -50.5 21.5t-19.5 48.5z M1063 885v209q0 27 19.5 47t50.5 20h137q29 0 42 -19.5t3 -45.5l-47 -213q-10 -29 -36 -48.5t-54 -19.5h-45q-31 0 -50.5 19.5t-19.5 50.5z" />
<glyph unicode="&#xe1;" d="M0 76l59 968q4 27 24.5 48.5t51.5 21.5h774v-276h-514q-31 0 -52 -19.5t-24 -50.5l-4 -45q0 -31 18.5 -50.5t49.5 -19.5h887q29 0 48 19.5t15 50.5l-2 45q-4 31 -24.5 50.5t-49.5 19.5h-8l60 276h209q31 0 51 -21.5t20 -48.5l62 -968q2 -31 -16.5 -52.5t-47.5 -21.5h-139 q-31 0 -51.5 21.5t-20.5 52.5l-16 231q-2 27 -23.5 48.5t-50.5 21.5h-921q-31 0 -51.5 -21.5t-20.5 -48.5l-17 -231q-2 -31 -23.5 -52.5t-51.5 -21.5h-135q-29 0 -48.5 21.5t-17.5 52.5zM981 905v209q0 27 21.5 48.5t48.5 21.5h139q29 0 43 -19.5t4 -48.5l-47 -213 q-10 -27 -37 -46t-53 -19h-49q-27 0 -48.5 19t-21.5 48z" />
<glyph unicode="&#xe9;" d="M0 70v966q0 29 19.5 48.5t50.5 19.5h1030v-273h-754q-31 0 -50.5 -21.5t-19.5 -47.5q0 -31 19.5 -50.5t50.5 -19.5h690q27 0 47.5 -20.5t20.5 -48.5v-138q0 -31 -20.5 -50t-47.5 -19h-690q-31 0 -50.5 -19.5t-19.5 -50.5q0 -27 19.5 -48.5t50.5 -21.5h1241q29 0 48.5 -19 t19.5 -50v-137q0 -31 -19.5 -50.5t-48.5 -19.5h-1517q-31 0 -50.5 19.5t-19.5 50.5zM1171 885v209q0 27 20.5 47t49.5 20h137q31 0 44.5 -19.5t4.5 -45.5l-49 -213q-8 -29 -35.5 -48.5t-54.5 -19.5h-47q-29 0 -49.5 19.5t-20.5 50.5zM1442 831l61 273h84q29 0 48.5 -19.5 t19.5 -48.5v-139q0 -27 -19.5 -46.5t-48.5 -19.5h-145z" />
<glyph unicode="&#xed;" horiz-adv-x="430" d="M0 70v602q0 31 19.5 48t50.5 17h141q27 0 48.5 -19.5t21.5 -45.5v-602q0 -27 -21.5 -48.5t-48.5 -21.5h-141q-31 0 -50.5 19.5t-19.5 50.5zM20 879v208q0 29 19.5 48.5t50.5 19.5h141q25 0 40.5 -19.5t2.5 -41.5l-49 -215q-6 -29 -32.5 -49.5t-53.5 -20.5h-49 q-27 0 -48.5 21.5t-21.5 48.5z" />
<glyph unicode="&#xf1;" d="M0 72v735q0 31 19.5 50.5t50.5 19.5h137q23 0 33 -3.5t20 -16.5t16 -42q12 -61 64 -84l975 -352q29 -8 46 5t17 40v383q0 31 21.5 50.5t48.5 19.5h139q29 0 48.5 -19.5t19.5 -50.5v-735q0 -29 -19.5 -50.5t-48.5 -21.5h-139q-33 0 -46 7t-24 44q-6 25 -14 37t-49 33 l-975 352q-27 8 -45.5 -4t-18.5 -39v-358q0 -29 -20 -50.5t-49 -21.5h-137q-31 0 -50.5 21.5t-19.5 50.5zM0 954v111q0 37 37 37h1585q33 0 33 -37v-111q0 -37 -33 -36h-1585q-37 -1 -37 36z" />
<glyph unicode="&#xf3;" d="M0 70v966q0 29 19.5 48.5t50.5 19.5h917v-273h-641q-31 0 -50.5 -21.5t-19.5 -47.5v-416q0 -27 19.5 -48.5t50.5 -21.5h963q31 0 50 21.5t19 48.5v416q0 27 -17.5 46t-45.5 19l74 277h198q29 0 48.5 -19.5t19.5 -48.5v-966q0 -27 -19.5 -48.5t-48.5 -21.5h-1517 q-31 0 -50.5 21.5t-19.5 48.5zM1059 885v209q0 27 20.5 47t48.5 20h140q27 0 42 -19.5t5 -45.5l-51 -213q-8 -29 -34 -48.5t-56 -19.5h-46q-29 0 -49 19.5t-20 50.5z" />
<glyph unicode="&#xfa;" d="M0 70v966q0 29 19.5 48.5t50.5 19.5h137q29 0 49 -19.5t20 -48.5v-690q0 -27 19.5 -48.5t50.5 -21.5h963q31 0 50 21.5t19 48.5v690q0 29 21.5 48.5t48.5 19.5h139q29 0 48.5 -19.5t19.5 -48.5v-966q0 -27 -19.5 -48.5t-48.5 -21.5h-1517q-31 0 -50.5 21.5t-19.5 48.5z M1063 885v209q0 27 19.5 47t50.5 20h137q29 0 42 -19.5t3 -45.5l-47 -213q-10 -29 -36 -48.5t-54 -19.5h-45q-31 0 -50.5 19.5t-19.5 50.5z" />
<glyph unicode="&#x2000;" horiz-adv-x="774" />
<glyph unicode="&#x2001;" horiz-adv-x="1550" />
<glyph unicode="&#x2002;" horiz-adv-x="774" />
<glyph unicode="&#x2003;" horiz-adv-x="1550" />
<glyph unicode="&#x2004;" horiz-adv-x="516" />
<glyph unicode="&#x2005;" horiz-adv-x="387" />
<glyph unicode="&#x2006;" horiz-adv-x="258" />
<glyph unicode="&#x2007;" horiz-adv-x="258" />
<glyph unicode="&#x2008;" horiz-adv-x="192" />
<glyph unicode="&#x2009;" horiz-adv-x="309" />
<glyph unicode="&#x200a;" horiz-adv-x="86" />
<glyph unicode="&#x2010;" d="M0 481v140q0 31 19.5 50t50.5 19h1517q29 0 48.5 -19.5t19.5 -49.5v-140q0 -27 -19.5 -46t-48.5 -19h-1517q-31 0 -50.5 19t-19.5 46z" />
<glyph unicode="&#x2011;" d="M0 481v140q0 31 19.5 50t50.5 19h1517q29 0 48.5 -19.5t19.5 -49.5v-140q0 -27 -19.5 -46t-48.5 -19h-1517q-31 0 -50.5 19t-19.5 46z" />
<glyph unicode="&#x2012;" d="M0 481v140q0 31 19.5 50t50.5 19h1517q29 0 48.5 -19.5t19.5 -49.5v-140q0 -27 -19.5 -46t-48.5 -19h-1517q-31 0 -50.5 19t-19.5 46z" />
<glyph unicode="&#x2013;" horiz-adv-x="1175" d="M0 481v140q0 31 12 50t31 19h939q18 0 30 -19.5t12 -49.5v-140q0 -27 -12 -46t-30 -19h-939q-19 0 -31 19t-12 46z" />
<glyph unicode="&#x2014;" horiz-adv-x="2199" d="M0 481v140q0 31 24 50t62 19h1878q35 0 59.5 -19.5t24.5 -49.5v-140q0 -27 -24 -46t-60 -19h-1878q-38 0 -62 19t-24 46z" />
<glyph unicode="&#x201d;" horiz-adv-x="751" d="M0 991v144q0 31 21.5 50t50.5 19h139q27 0 48.5 -21.5t21.5 -47.5v-211q0 -35 -40 -67t-61 -32h-12q-27 0 -27 27v53q0 18 -20 19h-49q-29 0 -50.5 21t-21.5 46zM322 991v144q0 31 21.5 50t51.5 19h137q27 0 48.5 -21.5t21.5 -47.5v-211q0 -35 -39 -67t-61 -32h-10 q-29 0 -29 27v53q0 18 -21 19h-47q-31 0 -52 21t-21 46z" />
<glyph unicode="&#x202f;" horiz-adv-x="309" />
<glyph unicode="&#x205f;" horiz-adv-x="387" />
<glyph unicode="&#x20a1;" d="M0 72v966q0 27 19.5 48.5t50.5 21.5h180q27 0 26 27v36q0 27 27 27h221q27 0 27 -27v-36q0 -27 31 -27h495q27 0 27 27v36q0 27 29 27h219q27 0 26 -27v-36q0 -27 31 -27h178q29 0 48.5 -21.5t19.5 -48.5v-321q0 -31 -19.5 -50.5t-48.5 -19.5h-139q-27 0 -48.5 19.5 t-21.5 50.5v45q0 31 -19.5 50t-49.5 19h-963q-31 0 -50.5 -19t-19.5 -50v-412q0 -31 19.5 -50t50.5 -19h963q31 0 50 19t19 50v45q0 27 21.5 47.5t48.5 20.5h139q29 0 48.5 -20.5t19.5 -47.5v-323q0 -29 -19.5 -50.5t-48.5 -21.5h-178q-31 0 -31 -27v-36q0 -31 -26 -31h-219 q-29 0 -29 31v36q0 27 -27 27h-495q-31 0 -31 -27v-36q0 -31 -27 -31h-221q-27 0 -27 31v36q0 27 -26 27h-180q-31 0 -50.5 21.5t-19.5 50.5z" />
<glyph unicode="&#xe000;" horiz-adv-x="1100" d="M0 1100h1100v-1100h-1100v1100z" />
<glyph horiz-adv-x="751" d="M0 897v207q0 37 39 68.5t61 31.5h11q29 0 28 -26v-56q0 -18 21 -18h47q31 0 52.5 -20.5t21.5 -45.5v-141q0 -31 -21.5 -50.5t-52.5 -19.5h-137q-27 0 -48.5 21.5t-21.5 48.5zM322 897v207q0 37 39.5 68.5t60.5 31.5h12q27 0 27 -26v-56q0 -18 20 -18h49q29 0 50.5 -20.5 t21.5 -45.5v-141q0 -31 -21.5 -50.5t-50.5 -19.5h-139q-27 0 -48 21.5t-21 48.5z" />
</font>
</defs>
</svg>
